<svg xmlns="http://www.w3.org/2000/svg" width="27.591" height="38.952" viewBox="0 0 27.591 38.952">
  <g id="about-icon3" transform="translate(-20.5 -13.5)">
    <path id="Path_132" data-name="Path 132" d="M20.5,13.5V52.452H30.555v-5.47a2.85,2.85,0,0,1,2.84-2.848h1.8a2.85,2.85,0,0,1,2.84,2.848v5.47H48.091V13.5ZM31.739,38.356a.814.814,0,0,1-.812.812H27.682a.814.814,0,0,1-.812-.812V31.864a.809.809,0,0,1,.812-.812h3.246a.809.809,0,0,1,.812.812Zm0-12.757a.814.814,0,0,1-.812.812H27.682a.814.814,0,0,1-.812-.812V19.107a.814.814,0,0,1,.812-.812h3.246a.814.814,0,0,1,.812.812Zm9.981,12.757a.814.814,0,0,1-.812.812H37.663a.814.814,0,0,1-.812-.812V31.864a.809.809,0,0,1,.812-.812h3.246a.809.809,0,0,1,.812.812Zm0-12.757a.814.814,0,0,1-.812.812H37.663a.814.814,0,0,1-.812-.812V19.107a.814.814,0,0,1,.812-.812h3.246a.814.814,0,0,1,.812.812Z" transform="translate(0)" fill="#3b7ccc"/>
  </g>
</svg>
