<svg xmlns="http://www.w3.org/2000/svg" xmlns:xlink="http://www.w3.org/1999/xlink" width="52" height="52" viewBox="0 0 52 52">
  <defs>
    <clipPath id="clip-backteria-icon">
      <rect width="52" height="52"/>
    </clipPath>
  </defs>
  <g id="backteria-icon" clip-path="url(#clip-backteria-icon)">
    <g id="Group_18659" data-name="Group 18659" transform="translate(0 0)">
      <g id="Group_18658" data-name="Group 18658" transform="translate(0)">
        <path id="Path_106" data-name="Path 106" d="M933.577,3645.481a.849.849,0,0,0,.6-.25l1.7-1.705a.849.849,0,0,0,.25-.6v-1.351l1.455-1.456a.85.85,0,0,0,0-1.2l-1.7-1.705a.853.853,0,0,0-.6-.25h-1.7a.852.852,0,0,0-.6.25l-1.7,1.705a.851.851,0,0,0-.25.6v3.409a.849.849,0,0,0,.25.6l1.7,1.705A.847.847,0,0,0,933.577,3645.481Zm-.852-5.613,1.2-1.206h1l.853.853-1.1,1.1a.851.851,0,0,0-.25.6v1.351l-.853.853-.852-.853Z" transform="translate(-927.61 -3629.285)" fill="#fff"/>
        <path id="Path_107" data-name="Path 107" d="M943.74,3637.166v1.352a.85.85,0,0,0,.249.6l1.7,1.7a.852.852,0,0,0,1.206,0l1.7-1.7a.849.849,0,0,0,.249-.6v-3.41a.85.85,0,0,0-.249-.6l-1.7-1.7a.852.852,0,0,0-.6-.25h-1.7a.852.852,0,0,0-.6.25l-1.7,1.7a.853.853,0,0,0,0,1.206Zm1.205-2.911h1l1.205,1.206v2.7l-.852.852-.853-.852v-1.352a.852.852,0,0,0-.249-.6l-1.1-1.1Z" transform="translate(-930.101 -3628.289)" fill="#fff"/>
        <path id="Path_108" data-name="Path 108" d="M938.548,3650.911a11.933,11.933,0,1,0-11.934-11.933A11.946,11.946,0,0,0,938.548,3650.911Zm0-22.162a10.228,10.228,0,1,1-10.229,10.229A10.24,10.24,0,0,1,938.548,3628.749Z" transform="translate(-926.614 -3627.044)" fill="#fff"/>
        <path id="Path_109" data-name="Path 109" d="M938.73,3647.224v3.41a.853.853,0,0,0,.853.852h3.41a.852.852,0,0,0,.852-.852v-1.352l1.455-1.456a.85.85,0,0,0,0-1.2l-1.7-1.705a.852.852,0,0,0-.6-.25h-1.7a.852.852,0,0,0-.6.25l-1.7,1.705A.851.851,0,0,0,938.73,3647.224Zm1.7.353,1.206-1.205h1l.852.852-1.1,1.1a.852.852,0,0,0-.25.6v.852h-1.7Z" transform="translate(-929.354 -3631.028)" fill="#fff"/>
        <path id="Path_110" data-name="Path 110" d="M950.421,3643.816l-1.455,1.456,1.206,1.2,1.7-1.7a.852.852,0,0,0,.25-.6v-1.7h-1.7Z" transform="translate(-931.668 -3630.531)" fill="#fff"/>
        <path id="Path_111" data-name="Path 111" d="M939.76,3633.757a.847.847,0,0,0,.25-.6v-1.705h-1.7v1.352l-1.455,1.455,1.206,1.205Z" transform="translate(-928.929 -3628.04)" fill="#fff"/>
        <path id="Path_112" data-name="Path 112" d="M976.659,3656.713l2.172-2.171-1.206-1.205-2.127,2.127a14.431,14.431,0,0,0-9.2-4.038v-3.454h-1.7v3.453a14.422,14.422,0,0,0-9.2,4.037l-2.127-2.126-1.2,1.206,2.171,2.171a14.418,14.418,0,0,0-3.23,8.306h-3.452v1.705H951a14.421,14.421,0,0,0,4.037,9.2l-2.127,2.127,1.206,1.206,2.171-2.172a14.418,14.418,0,0,0,8.307,3.231v3.453h1.7v-3.453a14.413,14.413,0,0,0,8.306-3.231l2.172,2.172,1.205-1.206-2.127-2.127a14.431,14.431,0,0,0,4.038-9.2h3.454v-1.705h-3.453a14.4,14.4,0,0,0-3.23-8.306Zm-11.217,21.945a12.786,12.786,0,1,1,12.786-12.786A12.8,12.8,0,0,1,965.442,3678.658Z" transform="translate(-931.346 -3631.776)" fill="#fff"/>
        <path id="Path_113" data-name="Path 113" d="M964.834,3669.271a3.329,3.329,0,0,0,.292-1.368,3.41,3.41,0,0,0-6.819,0,3.33,3.33,0,0,0,.292,1.368,4.2,4.2,0,0,0-1.145,2.894,4.262,4.262,0,1,0,8.524,0A4.2,4.2,0,0,0,964.834,3669.271Zm-3.117,5.451a2.56,2.56,0,0,1-2.557-2.557,2.533,2.533,0,0,1,1.036-2.041.854.854,0,0,0,.169-1.2,1.68,1.68,0,0,1-.353-1.022,1.7,1.7,0,0,1,3.41,0,1.68,1.68,0,0,1-.353,1.023.855.855,0,0,0,.17,1.2,2.53,2.53,0,0,1,1.036,2.041,2.561,2.561,0,0,1-2.558,2.557Z" transform="translate(-933.588 -3635.512)" fill="#fff"/>
        <path id="Path_114" data-name="Path 114" d="M964.064,3634.362l1.206,1.206,1.1-1.1v2.2h1.7v-2.2l1.1,1.1,1.206-1.206-1.1-1.1h2.2v-1.7h-2.2l1.1-1.1-1.206-1.206-1.1,1.1v-2.2h-1.7v2.2l-1.1-1.1-1.206,1.206,1.1,1.1h-2.2v1.7h2.2Z" transform="translate(-934.833 -3627.292)" fill="#fff"/>
        <path id="Path_115" data-name="Path 115" d="M989.107,3644.773l1.1-1.1L989,3642.465l-1.1,1.1v-2.2h-1.7v2.2l-1.1-1.1-1.2,1.206,1.1,1.1h-2.2v1.7h2.2l-1.1,1.1,1.2,1.2,1.1-1.1v2.205h1.7v-2.205l1.1,1.1,1.206-1.2-1.1-1.1h2.2v-1.7Z" transform="translate(-939.316 -3630.282)" fill="#fff"/>
        <path id="Path_116" data-name="Path 116" d="M936.239,3666.3v-1.7h-2.2l1.1-1.1-1.2-1.206-1.1,1.1v-2.205h-1.7v2.205l-1.1-1.1-1.205,1.206,1.1,1.1h-2.2v1.7h2.2l-1.1,1.1,1.205,1.206,1.1-1.1v2.2h1.7v-2.2l1.1,1.1,1.2-1.206-1.1-1.1Z" transform="translate(-926.863 -3634.764)" fill="#fff"/>
        <path id="Path_117" data-name="Path 117" d="M946.152,3685.525l-1.206-1.206-1.1,1.1v-2.205h-1.7v2.205l-1.1-1.1-1.206,1.206,1.1,1.1h-2.2v1.7h2.2l-1.1,1.1,1.206,1.206,1.1-1.1v2.2h1.7v-2.2l1.1,1.1,1.206-1.206-1.1-1.1h2.205v-1.7h-2.205Z" transform="translate(-929.354 -3639.746)" fill="#fff"/>
        <path id="Path_118" data-name="Path 118" d="M975.039,3671.457a3.241,3.241,0,0,1-.956,2.307l-1.851,1.852a3.242,3.242,0,0,1-2.308.955,2.557,2.557,0,0,0,0,5.115,9.019,9.019,0,0,0,6.424-2.662l1.145-1.145a9.019,9.019,0,0,0,2.661-6.422,2.557,2.557,0,1,0-5.115,0Zm3.41,0a7.331,7.331,0,0,1-2.161,5.218l-1.145,1.145a7.328,7.328,0,0,1-5.217,2.161.852.852,0,0,1,0-1.7,4.932,4.932,0,0,0,3.513-1.455l1.852-1.851a4.936,4.936,0,0,0,1.455-3.512.852.852,0,1,1,1.7,0Z" transform="translate(-935.829 -3636.508)" fill="#fff"/>
        <path id="Path_119" data-name="Path 119" d="M966.621,3661.9a2.542,2.542,0,0,0,1.86-.814l4.119.686c0,.043-.013.084-.013.128a2.578,2.578,0,1,0,.7-1.741l-4.119-.687c0-.043.012-.085.012-.129a2.557,2.557,0,1,0-2.557,2.557Zm8.524-.852a.852.852,0,1,1-.853.852A.853.853,0,0,1,975.145,3661.046Zm-8.524-2.558a.853.853,0,1,1-.852.853A.854.854,0,0,1,966.621,3658.488Z" transform="translate(-935.082 -3633.769)" fill="#fff"/>
      </g>
    </g>
  </g>
</svg>
