<svg xmlns="http://www.w3.org/2000/svg" width="44.198" height="44.044" viewBox="0 0 44.198 44.044">
  <g id="cafe" transform="translate(-10 -10.163)">
    <path id="Path_135" data-name="Path 135" d="M34.008,11.768A20.174,20.174,0,0,0,17.755,20H11.1V10.714a.551.551,0,1,0-1.1,0V53.656a.551.551,0,1,0,1.1,0V43.944H17.77A20.187,20.187,0,1,0,34.008,11.768ZM11.1,42.843V21.1H17a20.119,20.119,0,0,0,.014,21.747Zm22.906,8.206A19.09,19.09,0,1,1,53.1,31.959,19.112,19.112,0,0,1,34.008,51.049Z" transform="translate(0 0)" fill="#fff"/>
    <path id="Path_136" data-name="Path 136" d="M54.709,45.08h-.472c.012-.264.025-.528.025-.795V42.125a.55.55,0,0,0-.551-.551h-20.4a.55.55,0,0,0-.551.551v2.161c0,5.933,3.058,11.089,7.61,12.828a.557.557,0,0,0,.2.036h5.884a.557.557,0,0,0,.2-.036,11.329,11.329,0,0,0,5.86-5.48h2.2a3.277,3.277,0,0,0,0-6.553ZM33.867,42.675H53.161v1.61a15.259,15.259,0,0,1-.307,3.035H34.174a15.255,15.255,0,0,1-.307-3.035ZM46.353,56.048H40.676c-2.937-1.164-5.216-4.061-6.231-7.627H52.583C51.569,51.987,49.291,54.883,46.353,56.048Zm8.356-5.516H53.037a15.8,15.8,0,0,0,1.113-4.35h.559a2.175,2.175,0,1,1,0,4.35Z" transform="translate(-10.232 -14.118)" fill="#fff"/>
    <path id="Path_137" data-name="Path 137" d="M48.111,33.9a.551.551,0,1,0,0-1.1.748.748,0,1,1,0-1.5,1.85,1.85,0,1,0,0-3.7.551.551,0,0,0,0,1.1.748.748,0,1,1,0,1.5,1.85,1.85,0,1,0,0,3.7Z" transform="translate(-16.298 -7.839)" fill="#fff"/>
    <path id="Path_138" data-name="Path 138" d="M54.264,33.9a.551.551,0,0,0,0-1.1.748.748,0,1,1,0-1.5,1.85,1.85,0,1,0,0-3.7.551.551,0,1,0,0,1.1.748.748,0,1,1,0,1.5,1.85,1.85,0,1,0,0,3.7Z" transform="translate(-19.063 -7.839)" fill="#fff"/>
  </g>
</svg>
