<svg xmlns="http://www.w3.org/2000/svg" width="30" height="32.283" viewBox="0 0 30 32.283">
  <g id="cart" transform="translate(0 0)">
    <path id="Path_24" data-name="Path 24" d="M1757.743,71.7h17.788a3.67,3.67,0,0,0,3.662-3.662V60.478a.087.087,0,0,0-.006-.04c0-.013-.006-.033-.006-.046s-.007-.026-.007-.04-.007-.026-.014-.046-.006-.026-.013-.039-.007-.027-.013-.04a.5.5,0,0,1-.02-.046.155.155,0,0,0-.02-.033l-.02-.04c-.006-.013-.014-.02-.02-.033s-.02-.027-.026-.04A.129.129,0,0,0,1779,60c-.006-.013-.02-.02-.026-.033s-.02-.02-.027-.033-.02-.02-.026-.027l-.033-.033c-.013-.007-.02-.02-.033-.027s-.026-.02-.039-.026-.02-.014-.034-.02a.141.141,0,0,1-.04-.026l-.04-.02-.04-.02-.039-.02c-.014-.007-.027-.007-.04-.014a.125.125,0,0,0-.046-.013.3.3,0,0,1-.033-.007.146.146,0,0,0-.053-.007c-.007,0-.013-.007-.026-.007l-22.545-3.112V53.412a.419.419,0,0,0-.006-.093.05.05,0,0,0-.006-.026c0-.02-.007-.04-.007-.06s-.007-.033-.013-.054-.007-.02-.007-.033l-.02-.06c0-.007-.006-.02-.006-.027a.182.182,0,0,0-.027-.053c-.006-.007-.006-.02-.013-.027a.139.139,0,0,0-.026-.039c-.007-.014-.014-.02-.02-.033s-.013-.02-.02-.033-.02-.026-.027-.039l-.02-.02-.04-.04-.02-.02a.335.335,0,0,0-.047-.04c-.007-.007-.02-.013-.027-.02s-.026-.02-.04-.033-.039-.026-.053-.033-.013-.007-.02-.013c-.027-.013-.06-.026-.086-.04l-4.89-2.057a.9.9,0,1,0-.7,1.652L1754.081,54V73.628a3.667,3.667,0,0,0,3.191,3.629,3.615,3.615,0,1,0,6.715,1.858,3.552,3.552,0,0,0-.5-1.825h8.055a3.564,3.564,0,0,0-.5,1.825,3.616,3.616,0,1,0,3.615-3.616h-16.918a1.873,1.873,0,0,1-1.871-1.871V71.2A3.7,3.7,0,0,0,1757.743,71.7Zm4.458,7.4a1.824,1.824,0,1,1-1.825-1.825A1.827,1.827,0,0,1,1762.2,79.108Zm14.291,0a1.824,1.824,0,1,1-1.825-1.825A1.828,1.828,0,0,1,1776.493,79.108Zm-.962-9.2h-17.788a1.873,1.873,0,0,1-1.871-1.871V58.361l21.53,2.966v6.708A1.874,1.874,0,0,1,1775.531,69.912Z" transform="translate(-1749.193 -50.448)" fill="#fff"/>
  </g>
</svg>
