<svg xmlns="http://www.w3.org/2000/svg" width="68" height="68" viewBox="0 0 68 68">
  <g id="icon5" transform="translate(-1104.188 -411.737)">
    <circle id="Ellipse_59" data-name="Ellipse 59" cx="32.5" cy="32.5" r="32.5" transform="translate(1105.688 413.237)" fill="none" stroke="#fff" stroke-miterlimit="10" stroke-width="3"/>
    <line id="Line_54674" data-name="Line 54674" x1="44.584" y1="44.584" transform="translate(1116.183 423.731)" fill="none" stroke="#fff" stroke-miterlimit="10" stroke-width="3"/>
    <g id="Group_18834" data-name="Group 18834" transform="translate(1123.009 437.552)">
      <path id="Path_294" data-name="Path 294" d="M1232.643,575.292l.073.172a1.469,1.469,0,1,0,2.7-1.146l-.073-.172a24.125,24.125,0,0,1-1.487-14.092l-2.446-2.446A27.033,27.033,0,0,0,1232.643,575.292Z" transform="translate(-1218.521 -548.384)" fill="#fff"/>
      <path id="Path_295" data-name="Path 295" d="M1280.522,606.334l.052.146a1.468,1.468,0,0,0,2.722.1l-3.721-3.721A23.162,23.162,0,0,0,1280.522,606.334Z" transform="translate(-1255.603 -582.559)" fill="#fff"/>
      <path id="Path_296" data-name="Path 296" d="M1183.669,526.281a22.744,22.744,0,0,0-.549,17.411l.054.145a1.469,1.469,0,1,0,2.751-1.031l-.055-.146a19.825,19.825,0,0,1,.479-15.176,22.7,22.7,0,0,0,1.569-4.959l-2.6-2.6A19.9,19.9,0,0,1,1183.669,526.281Z" transform="translate(-1181.651 -519.929)" fill="#fff"/>
    </g>
    <g id="Group_18835" data-name="Group 18835" transform="translate(1125.123 423.829)">
      <path id="Path_297" data-name="Path 297" d="M1239.43,460.821l-.022-.05a1.469,1.469,0,1,0-2.69,1.18l.022.05a24.458,24.458,0,0,1,1.2,16.092l2.356,2.356A27.411,27.411,0,0,0,1239.43,460.821Z" transform="translate(-1225.433 -459.892)" fill="#fff"/>
      <path id="Path_298" data-name="Path 298" d="M1283.567,493.434a23.023,23.023,0,0,0,.7-17.673l-.016-.042a1.469,1.469,0,0,0-2.754,1.024l.017.044a20.069,20.069,0,0,1-.61,15.406,22.967,22.967,0,0,0-1.88,6.171l2.682,2.682A19.916,19.916,0,0,1,1283.567,493.434Z" transform="translate(-1257.477 -471.121)" fill="#fff"/>
      <path id="Path_299" data-name="Path 299" d="M1193.857,475.544l-.016-.042a1.469,1.469,0,0,0-2.736,1.07l.016.041c.035.09.064.181.1.271l4,4A22.715,22.715,0,0,0,1193.857,475.544Z" transform="translate(-1191.003 -470.975)" fill="#fff"/>
    </g>
  </g>
</svg>
