<svg xmlns="http://www.w3.org/2000/svg" width="35.032" height="34.336" viewBox="0 0 35.032 34.336">
  <g id="icon7" transform="translate(-15.75 -16.276)">
    <path id="Path_145" data-name="Path 145" d="M32.915,16.781l-10.206,9H17.624a1.845,1.845,0,0,0-1.874,1.8V39.409a1.845,1.845,0,0,0,1.874,1.8h5.209l10.052,8.869A2.117,2.117,0,0,0,36.4,48.5V18.342a2.117,2.117,0,0,0-3.489-1.561Z" transform="translate(0 0)" fill="#fff"/>
    <path id="Path_146" data-name="Path 146" d="M62.174,41.1l3.737-3.743a1.419,1.419,0,0,0-2-2L60.17,39.1l-3.737-3.737a1.419,1.419,0,0,0-2,2L58.166,41.1l-3.737,3.737a1.419,1.419,0,0,0,1.793,2.2,1.39,1.39,0,0,0,.212-.213l3.737-3.737,3.737,3.737a1.419,1.419,0,0,0,2.1-1.906c-.031-.034-.064-.067-.1-.1Z" transform="translate(-15.595 -7.648)" fill="#fff"/>
  </g>
</svg>
