<svg xmlns="http://www.w3.org/2000/svg" width="38.436" height="40.235" viewBox="0 0 38.436 40.235">
  <g id="icon3" transform="translate(35.39 -67.167)">
    <path id="Path_139" data-name="Path 139" d="M20.377,16.61l4.344-2.964h4.839a1.613,1.613,0,0,0,1.613-1.613V4.1A1.613,1.613,0,0,0,29.561,2.49H18.324a1.613,1.613,0,0,0-1.6,1.613V12.05a1.613,1.613,0,0,0,1.6,1.613h1.528v2.676a.326.326,0,0,0,.525.271ZM21.711,7.5a.7.7,0,0,1,.991,0l.7.707,1.77-1.77a.7.7,0,0,1,.991.991L23.828,9.756a.589.589,0,0,1-.847,0l-1.27-1.27A.7.7,0,0,1,21.711,7.5Zm21.335,31.59v3.633H4.61V39.283a2.748,2.748,0,0,1,1.558-2.206,12.7,12.7,0,0,1,2.282-.847,24.644,24.644,0,0,0,3.62-1.27l.085-.051a.847.847,0,0,0,.39-.72V32.721C8.692,32.754,7.557,31.1,7.557,31.1s2.2-.034,2.066-5.843,2.54-6.774,3.54-7.147c2.909-1.105,4.369.652,4.369.652,3.387-.313,4.3,3.387,3.887,7.562s1.888,4.844,1.888,4.844c-1.6,1.617-4.924,1.516-4.924,1.516v.373h0v1.114a.847.847,0,0,0,.39.72l.1.064a10.886,10.886,0,0,0,1.4.584,42.762,42.762,0,0,1,5.475-3.269.237.237,0,0,0,.131-.212V29.613a5.877,5.877,0,0,1-.732-2c-.279-.021-.648-.423-1.046-1.821-.512-1.808-.03-2.164.423-2.164-.246-1.054-.872-4.721,1.859-6.389a1.465,1.465,0,0,1-.521-1.114,20.784,20.784,0,0,0,4.619.042,3.092,3.092,0,0,1,3.387,2.011s3.057,0,1.867,5.453c.474,0,.995.309.47,2.159-.4,1.4-.766,1.8-1.046,1.821a5.877,5.877,0,0,1-.732,2v2.443a.237.237,0,0,0,.131.212,41.735,41.735,0,0,1,7.562,4.848A2.54,2.54,0,0,1,43.046,39.093Z" transform="translate(-40 64.677)" fill="#fff"/>
  </g>
</svg>
