<svg xmlns="http://www.w3.org/2000/svg" width="65" height="65" viewBox="0 0 65 65">
  <g id="icon8" transform="translate(-1466.12 -40.815)">
    <g id="Group_18855" data-name="Group 18855" transform="translate(1487.133 53.627)">
      <path id="Path_327" data-name="Path 327" d="M1566.845,97.729v3.125a1.663,1.663,0,0,1-.617,1.293l-.361.292a9.929,9.929,0,0,0-3.7,7.744.812.812,0,0,0,.384.7l4.426,2.72c.215.145.751.461,1.081.268h0a.4.4,0,0,0,.106-.6,10.821,10.821,0,0,0-2.741-2.42l1.478-2.261a13.881,13.881,0,0,1,3.617,3.293,2.882,2.882,0,0,1-.341,3.705,3.219,3.219,0,0,1-2.375,1.041,4.161,4.161,0,0,1-2.31-.771l-4.357-2.676a3.529,3.529,0,0,1-1.671-2.988,12.617,12.617,0,0,1,4.68-9.834V97.729" transform="translate(-1559.463 -97.729)" fill="#fff"/>
    </g>
    <path id="Path_328" data-name="Path 328" d="M1638.059,106.432a1.351,1.351,0,0,1-1.348-1.284,9.982,9.982,0,0,0-3.69-7.256l-.105-.09a2.426,2.426,0,0,1-.844-1.84V93.15a1.351,1.351,0,1,1,2.7,0v2.685a12.685,12.685,0,0,1,4.635,9.179,1.351,1.351,0,0,1-1.282,1.416Z" transform="translate(-128.593 -39.507)" fill="#fff"/>
    <path id="Path_329" data-name="Path 329" d="M1581.573,97.313a1.351,1.351,0,0,1-1.351-1.351V93.15a1.351,1.351,0,1,1,2.7,0v2.812A1.351,1.351,0,0,1,1581.573,97.313Z" transform="translate(-88.415 -39.507)" fill="#fff"/>
    <path id="Path_330" data-name="Path 330" d="M1498.62,105.815a32.5,32.5,0,1,1,32.5-32.5A32.537,32.537,0,0,1,1498.62,105.815Zm0-62.3a29.8,29.8,0,1,0,29.8,29.8A29.832,29.832,0,0,0,1498.62,43.516Z" fill="#fff"/>
    <path id="Path_331" data-name="Path 331" d="M1569.557,174.412h-17.036a7.707,7.707,0,0,1-5.271-2,5.968,5.968,0,0,1-1.946-4.342V152.551a5.937,5.937,0,0,1,1.635-4.027l1.286-1.387.651-.76,2.051,1.758-.7.819-1.3,1.406a3.2,3.2,0,0,0-.914,2.19v15.517a3.3,3.3,0,0,0,1.1,2.38,4.983,4.983,0,0,0,3.414,1.263h17.036a4.983,4.983,0,0,0,3.414-1.263,3.3,3.3,0,0,0,1.1-2.38V152.551a3.205,3.205,0,0,0-.914-2.19l-.241-.26a4.93,4.93,0,0,0-3.587-1.438h-13.4v-2.7h13.4a7.567,7.567,0,0,1,5.568,2.3l.241.26a5.936,5.936,0,0,1,1.635,4.027v15.517a5.966,5.966,0,0,1-1.947,4.342A7.7,7.7,0,0,1,1569.557,174.412Z" transform="translate(-61.358 -81.476)" fill="#fff"/>
  </g>
</svg>
