<svg xmlns="http://www.w3.org/2000/svg" width="70" height="46.142" viewBox="0 0 70 46.142">
  <g id="icon2" transform="translate(-1099.688 -831.993)">
    <path id="Path_333" data-name="Path 333" d="M1138.393,873.386H1119.4v-2.911h18.989a3.48,3.48,0,0,0,3.431-3.519V838.423a3.48,3.48,0,0,0-3.431-3.519h-32.362a3.48,3.48,0,0,0-3.431,3.519v28.533a3.48,3.48,0,0,0,3.431,3.519h2.143v2.911h-2.143a6.394,6.394,0,0,1-6.343-6.43V838.423a6.394,6.394,0,0,1,6.343-6.43h32.362a6.394,6.394,0,0,1,6.342,6.43v28.533A6.394,6.394,0,0,1,1138.393,873.386Z" fill="#fff"/>
    <g id="Group_18859" data-name="Group 18859" transform="translate(1106.718 841.75)">
      <path id="Path_334" data-name="Path 334" d="M1135.735,978.039a7.071,7.071,0,1,1,7.071-7.071A7.079,7.079,0,0,1,1135.735,978.039Zm0-11.231a4.16,4.16,0,1,0,4.16,4.16A4.165,4.165,0,0,0,1135.735,966.808Z" transform="translate(-1128.664 -941.654)" fill="#fff"/>
      <path id="Path_335" data-name="Path 335" d="M1308.7,978.039a7.071,7.071,0,1,1,7.071-7.071A7.079,7.079,0,0,1,1308.7,978.039Zm0-11.231a4.16,4.16,0,1,0,4.16,4.16A4.164,4.164,0,0,0,1308.7,966.808Z" transform="translate(-1259.666 -941.654)" fill="#fff"/>
      <path id="Path_336" data-name="Path 336" d="M1294.851,903.846h-1.979v-2.911h1.979a3.437,3.437,0,0,0,3.433-3.433v-7.646a3.432,3.432,0,0,0-.842-2.252l-9.823-11.3a3.433,3.433,0,0,0-2.591-1.181h-8.8V897.5a3.437,3.437,0,0,0,3.433,3.433h1.979v2.911h-1.979a6.351,6.351,0,0,1-6.344-6.344V872.21h11.711a6.342,6.342,0,0,1,4.788,2.182l9.823,11.3a6.342,6.342,0,0,1,1.556,4.161V897.5A6.351,6.351,0,0,1,1294.851,903.846Z" transform="translate(-1238.225 -872.21)" fill="#fff"/>
    </g>
  </g>
</svg>
