<svg xmlns="http://www.w3.org/2000/svg" width="41.849" height="28.771" viewBox="0 0 41.849 28.771">
  <g id="icon4" transform="translate(-8 -13)">
    <path id="Path_124" data-name="Path 124" d="M49.221,27.961l-6.434-7.507a2.616,2.616,0,0,0-1.988-.915H34.156V15.616A2.615,2.615,0,0,0,31.54,13H10.616A2.615,2.615,0,0,0,8,15.616V33.925a2.615,2.615,0,0,0,2.616,2.616h1.308a5.231,5.231,0,0,0,10.462,0H35.463a5.231,5.231,0,0,0,10.462,0h3.923V29.661A2.613,2.613,0,0,0,49.221,27.961ZM17.154,39.156A2.616,2.616,0,1,1,19.77,36.54,2.615,2.615,0,0,1,17.154,39.156Zm23.54,0A2.616,2.616,0,1,1,43.31,36.54,2.615,2.615,0,0,1,40.695,39.156Z" transform="translate(0 0)" fill="#fff"/>
  </g>
</svg>
