<svg xmlns="http://www.w3.org/2000/svg" width="35.2" height="32.831" viewBox="0 0 35.2 32.831">
  <g id="about-icon1" transform="translate(-2.5 -5.595)">
    <g id="Group_18729" data-name="Group 18729" transform="translate(2.5 5.595)">
      <path id="Path_130" data-name="Path 130" d="M56.272,23.2a2.828,2.828,0,0,0,1.408-2.816,3.007,3.007,0,0,0-3.038-2.52H45.379c.074-.185.185-.445.259-.667a18.7,18.7,0,0,0,1.593-6.67c0-3-2.112-4.817-3.557-4.928a1.607,1.607,0,0,0-1.7,1.519,23.872,23.872,0,0,1-2.038,5.743,2.875,2.875,0,0,1-.593.889A32.225,32.225,0,0,1,34.3,18.491c0,.074.037.185.037.259V36.5c0,.148-.037.3-.037.445a35.317,35.317,0,0,0,10.078,1.482h7.892a2.952,2.952,0,0,0,2.927-2.26,2.908,2.908,0,0,0-.926-2.779,2.893,2.893,0,0,0,2.223-2.779,2.765,2.765,0,0,0-1-2.149,2.851,2.851,0,0,0,.778-5.262Z" transform="translate(-22.517 -5.595)" fill="#3b7ccc"/>
      <path id="Path_131" data-name="Path 131" d="M10.244,36.9H4.056A1.566,1.566,0,0,0,2.5,38.456V56.2a1.566,1.566,0,0,0,1.556,1.556h6.188A1.566,1.566,0,0,0,11.8,56.2V38.493A1.551,1.551,0,0,0,10.244,36.9ZM7.169,55.056a1.63,1.63,0,1,1,1.63-1.63A1.645,1.645,0,0,1,7.169,55.056Z" transform="translate(-2.5 -25.301)" fill="#3b7ccc"/>
    </g>
  </g>
</svg>
