<svg xmlns="http://www.w3.org/2000/svg" width="70.617" height="45.074" viewBox="0 0 70.617 45.074">
  <g id="about-icon2" transform="translate(-3.452 -20.175)">
    <path id="Path_125" data-name="Path 125" d="M14.149,20.572l2.722,5.444a1.111,1.111,0,0,0,.454.378l6.049.907a.626.626,0,0,1,.378,1.059l-4.385,4.234a.5.5,0,0,0-.151.529L20.274,39.1a.638.638,0,0,1-.907.68L14,36.979a.828.828,0,0,0-.6,0l-5.368,2.8a.638.638,0,0,1-.907-.68l1.059-5.973c0-.227,0-.454-.151-.529L3.639,28.36A.62.62,0,0,1,4.017,27.3l6.049-.907a.479.479,0,0,0,.454-.378l2.722-5.444C13.242,20.043,13.922,20.043,14.149,20.572Z" fill="#3b7ccc"/>
    <path id="Path_126" data-name="Path 126" d="M47.449,20.572l2.722,5.444a1.111,1.111,0,0,0,.454.378l6.049.907a.626.626,0,0,1,.378,1.059l-4.385,4.234a.5.5,0,0,0-.151.529L53.574,39.1a.638.638,0,0,1-.907.68l-5.368-2.8a.828.828,0,0,0-.6,0l-5.368,2.8a.638.638,0,0,1-.907-.68l1.059-5.973c0-.227,0-.454-.151-.529L36.939,28.36a.62.62,0,0,1,.378-1.059l6.049-.907a.479.479,0,0,0,.454-.378l2.722-5.444C46.542,20.043,47.222,20.043,47.449,20.572Z" transform="translate(-8.122)" fill="#3b7ccc"/>
    <path id="Path_127" data-name="Path 127" d="M80.449,20.572l2.722,5.444a1.111,1.111,0,0,0,.454.378l6.049.907a.626.626,0,0,1,.378,1.059l-4.385,4.234a.5.5,0,0,0-.151.529L86.574,39.1a.638.638,0,0,1-.907.68l-5.368-2.8a.828.828,0,0,0-.6,0l-5.368,2.8a.638.638,0,0,1-.907-.68l1.059-5.973c0-.227,0-.454-.151-.529L69.939,28.36a.62.62,0,0,1,.378-1.059l6.049-.907a.479.479,0,0,0,.454-.378l2.722-5.444C79.542,20.043,80.222,20.043,80.449,20.572Z" transform="translate(-16.171)" fill="#3b7ccc"/>
    <path id="Path_128" data-name="Path 128" d="M73.854,61.866a.62.62,0,0,0-.378-1.059L67.427,59.9a.479.479,0,0,1-.454-.378l-2.722-5.444a.673.673,0,0,0-1.21,0L60.32,59.522a1.111,1.111,0,0,1-.454.378l-6.049.907a.626.626,0,0,0-.378,1.059L57.825,66.1a.5.5,0,0,1,.151.529L56.918,72.6a.64.64,0,0,0,.6.756.455.455,0,0,0,.3-.076l5.368-2.8a.643.643,0,0,1,.6,0l5.368,2.8a.455.455,0,0,0,.3.076.609.609,0,0,0,.6-.756l-1.059-5.973c0-.227,0-.454.151-.529Z" transform="translate(-12.146 -8.177)" fill="#3b7ccc"/>
    <path id="Path_129" data-name="Path 129" d="M31.725,54.093l2.722,5.444a1.111,1.111,0,0,0,.454.378l6.049.907a.626.626,0,0,1,.378,1.059l-4.385,4.234a.5.5,0,0,0-.151.529l1.059,5.973a.638.638,0,0,1-.907.68L31.5,70.576a.828.828,0,0,0-.6,0l-5.368,2.8a.638.638,0,0,1-.907-.68l1.059-5.973c0-.227,0-.454-.151-.529l-4.385-4.234a.62.62,0,0,1,.378-1.059l6.049-.907a.479.479,0,0,0,.454-.378l2.722-5.444A.512.512,0,0,1,31.725,54.093Z" transform="translate(-4.268 -8.192)" fill="#3b7ccc"/>
  </g>
</svg>
