<svg id="advantage3" xmlns="http://www.w3.org/2000/svg" width="40" height="40" viewBox="0 0 40 40">
  <circle id="Oval_2" data-name="Oval 2" cx="20" cy="20" r="20" fill="#f4f5f8"/>
  <g id="noun_easy_2742915" transform="translate(13 9)">
    <path id="Shape" d="M12.623,21.894l-8.631-.016c-.209,0-.378-.282-.378-.631V19.46c0-.35.169-.638.378-.631l.5.017L4.415,17.68a2.547,2.547,0,0,0-.1-.357,1.373,1.373,0,0,0-.112-.186L.282,11.8a1.031,1.031,0,0,1-.068-1.329l.131-.143a.888.888,0,0,1,1.288,0l2.736,2.7h0a.131.131,0,0,0,.074.039c.113,0,.121-.414.121-.414L4.542,4.5A1.09,1.09,0,0,1,5.649,3.422h0A1.09,1.09,0,0,1,6.755,4.5l0,4.9,0,.062a1.05,1.05,0,0,1,1-1.09,1.058,1.058,0,0,1,1,1.1l.008.591a1.051,1.051,0,0,1,.988-1.042c1.036.022,1.018,1.337,1.018,1.337l0,.269a1.039,1.039,0,0,1,.989-.918A1.018,1.018,0,0,1,12.767,10.8a37.692,37.692,0,0,1-.156,5.47c-.29,1.111-.434.966-.518,1.485a5.962,5.962,0,0,0-.022,1.1h.552c.209,0,.377.281.377.63v1.788c0,.349-.168.63-.376.63ZM10.662,5.474H8.5a.276.276,0,0,1-.247-.17.412.412,0,0,1,0-.345A.276.276,0,0,1,8.5,4.79h2.167a.274.274,0,0,1,.247.169.405.405,0,0,1,0,.345.274.274,0,0,1-.242.17Zm-7.526,0H.969A.274.274,0,0,1,.723,5.3a.405.405,0,0,1,0-.345A.274.274,0,0,1,.969,4.79H3.137a.276.276,0,0,1,.247.169.412.412,0,0,1,0,.345.276.276,0,0,1-.243.17ZM7.726,2.727a.277.277,0,0,1-.192-.2.281.281,0,0,1,.077-.268L9.114.766a.269.269,0,0,1,.445.091.282.282,0,0,1-.065.306l-1.5,1.492a.27.27,0,0,1-.266.072ZM3.641,2.655l-1.5-1.492a.283.283,0,0,1-.067-.3.275.275,0,0,1,.25-.176.27.27,0,0,1,.2.082l1.5,1.492a.279.279,0,0,1,.077.268.275.275,0,0,1-.191.2.27.27,0,0,1-.266-.072Zm2,.043a.273.273,0,0,1-.17-.246V.285a.255.255,0,0,1,.1-.2A.38.38,0,0,1,5.811,0a.389.389,0,0,1,.247.082.258.258,0,0,1,.1.2V2.453a.273.273,0,0,1-.17.246.4.4,0,0,1-.344,0Z" fill="#989aaf"/>
  </g>
</svg>
