<svg id="advantage1" xmlns="http://www.w3.org/2000/svg" width="40" height="40" viewBox="0 0 40 40">
  <circle id="Oval_2" data-name="Oval 2" cx="20" cy="20" r="20" fill="#f4f5f8"/>
  <g id="noun_Shield_3349219" transform="translate(14 12)">
    <path id="Shape" d="M6.1,15.4C6.04,15.368,0,12.278,0,6.229V2.267a.286.286,0,0,1,.285-.286A12.346,12.346,0,0,0,6.071.048a.286.286,0,0,1,.317,0,12.34,12.34,0,0,0,5.784,1.933.286.286,0,0,1,.286.286V6.229c0,6.049-6.041,9.14-6.1,9.17a.292.292,0,0,1-.128.03A.287.287,0,0,1,6.1,15.4Z" transform="translate(0.057 0.286)" fill="#7a7d97"/>
  </g>
</svg>
