<svg xmlns="http://www.w3.org/2000/svg" width="40" height="40" viewBox="0 0 40 40">
  <g id="icon8" transform="translate(123.105 -3.921)">
    <path id="Path_143" data-name="Path 143" d="M-86.693,27.54l3.114-2.609a1.27,1.27,0,0,0,0-1.978L-86.693,20.3a1.307,1.307,0,0,1-.379-1.431l1.389-3.83a1.331,1.331,0,0,0-1.01-1.725l-4.04-.757a1.25,1.25,0,0,1-1.052-1.052l-.715-4A1.316,1.316,0,0,0-94.225,6.5l-3.83,1.389a1.307,1.307,0,0,1-1.431-.379l-2.651-3.114a1.27,1.27,0,0,0-1.978,0l-2.609,3.114a1.307,1.307,0,0,1-1.431.379l-3.83-1.389a1.3,1.3,0,0,0-1.725,1.01l-.757,4.04A1.25,1.25,0,0,1-115.52,12.6l-4,.715a1.316,1.316,0,0,0-1.01,1.725l1.389,3.83a1.307,1.307,0,0,1-.379,1.431l-3.114,2.651a1.27,1.27,0,0,0,0,1.978l3.114,2.651a1.307,1.307,0,0,1,.379,1.431l-1.389,3.83a1.277,1.277,0,0,0,1.01,1.683l4.04.715a1.25,1.25,0,0,1,1.052,1.052l.715,4.04a1.316,1.316,0,0,0,1.725,1.01l3.83-1.389a1.307,1.307,0,0,1,1.431.379l2.651,3.114a1.27,1.27,0,0,0,1.978,0l2.651-3.114a1.307,1.307,0,0,1,1.431-.379l3.83,1.389a1.331,1.331,0,0,0,1.725-1.01l.715-4.04a1.25,1.25,0,0,1,1.052-1.052l4.04-.715a1.316,1.316,0,0,0,1.01-1.725l-1.431-3.83A1.307,1.307,0,0,1-86.693,27.54Zm-17.317,2.323h-9.574V28.18l5.176-5.871a4.392,4.392,0,0,0,1.452-2.883,1.948,1.948,0,0,0-1.915-1.978,2.1,2.1,0,0,0-2,1.662l-2.609-.779a4.843,4.843,0,0,1,4.65-3.409,4.59,4.59,0,0,1,4.713,4.545,6.336,6.336,0,0,1-1.894,4.229l-3.135,3.64h5.134Zm5.871,5.05H-101l2.82-6.081-4.566-9.174h3.009l2.988,6.123,2.756-6.123h2.883Z" transform="translate(0 0)" fill="#fff"/>
  </g>
</svg>
