<svg xmlns="http://www.w3.org/2000/svg" width="65" height="65" viewBox="0 0 65 65">
  <g id="icon7" transform="translate(-733.015 -40.815)">
    <path id="Path_301" data-name="Path 301" d="M765.515,105.815a32.5,32.5,0,1,1,32.5-32.5A32.537,32.537,0,0,1,765.515,105.815Zm0-62.3a29.8,29.8,0,1,0,29.8,29.8A29.832,29.832,0,0,0,765.515,43.516Z" fill="#fff"/>
    <rect id="Rectangle_286" data-name="Rectangle 286" width="2.701" height="62.299" transform="translate(742.534 52.244) rotate(-45)" fill="#fff"/>
    <g id="Group_18841" data-name="Group 18841" transform="translate(749.948 64.201)">
      <path id="Path_302" data-name="Path 302" d="M812.785,146.289a13.383,13.383,0,0,0,18.6,18.6l1.588,1.588A15.6,15.6,0,0,1,811.2,144.7Z" transform="translate(-808.235 -144.699)" fill="#fff"/>
    </g>
    <g id="Group_18850" data-name="Group 18850" transform="translate(745.851 53.694)">
      <g id="Group_18842" data-name="Group 18842" transform="translate(10.557 4.035)">
        <path id="Path_303" data-name="Path 303" d="M846.076,118.164a13.384,13.384,0,0,1,11.047,20.953l1.586,1.586a15.594,15.594,0,0,0-21.78-21.78l1.586,1.586A13.315,13.315,0,0,1,846.076,118.164Z" transform="translate(-836.929 -115.95)" fill="#fff"/>
      </g>
      <path id="Path_304" data-name="Path 304" d="M843.623,111.66a1.351,1.351,0,0,1-1.242-.818l-1.021-2.377a1.351,1.351,0,1,1,2.482-1.066l1.021,2.376a1.351,1.351,0,0,1-1.24,1.884Z" transform="translate(-829.72 -104.655)" fill="#fff"/>
      <path id="Path_305" data-name="Path 305" d="M830.3,103.028a1.351,1.351,0,0,1-.5-2.608l4.913-1.935a1.351,1.351,0,0,1,.99,2.513l-4.913,1.935A1.347,1.347,0,0,1,830.3,103.028Z" transform="translate(-820.187 -98.308)" fill="#fff"/>
      <g id="Group_18843" data-name="Group 18843" transform="translate(23.124 0)">
        <path id="Path_306" data-name="Path 306" d="M898.819,111.548a1.351,1.351,0,0,1-1.254-1.851l.961-2.409a1.351,1.351,0,0,1,2.509,1l-.961,2.409A1.351,1.351,0,0,1,898.819,111.548Z" transform="translate(-896.407 -104.543)" fill="#fff"/>
        <path id="Path_307" data-name="Path 307" d="M898.945,102.832a1.345,1.345,0,0,1-.538-.112l-4.842-2.106a1.351,1.351,0,1,1,1.077-2.477l4.842,2.106a1.351,1.351,0,0,1-.539,2.59Z" transform="translate(-892.752 -98.024)" fill="#fff"/>
      </g>
      <g id="Group_18844" data-name="Group 18844" transform="translate(32.167 8.616)">
        <path id="Path_308" data-name="Path 308" d="M934.274,152.4a1.351,1.351,0,0,1-.534-2.592l2.564-1.1a1.351,1.351,0,0,1,1.066,2.482l-2.564,1.1A1.349,1.349,0,0,1,934.274,152.4Z" transform="translate(-932.922 -145.829)" fill="#fff"/>
        <path id="Path_309" data-name="Path 309" d="M947.193,143.912a1.352,1.352,0,0,1-1.257-.856L944,138.142a1.351,1.351,0,1,1,2.514-.99l1.934,4.913a1.352,1.352,0,0,1-1.256,1.846Z" transform="translate(-941.434 -136.296)" fill="#fff"/>
      </g>
      <g id="Group_18845" data-name="Group 18845" transform="translate(32.167 22.94)">
        <path id="Path_310" data-name="Path 310" d="M936.869,208.048a1.346,1.346,0,0,1-.5-.1l-2.6-1.036a1.351,1.351,0,0,1,1-2.509l2.6,1.036a1.351,1.351,0,0,1-.5,2.606Z" transform="translate(-932.922 -203.323)" fill="#fff"/>
        <path id="Path_311" data-name="Path 311" d="M944.863,207.469a1.351,1.351,0,0,1-1.238-1.89l2.106-4.842a1.351,1.351,0,1,1,2.477,1.077l-2.106,4.842A1.351,1.351,0,0,1,944.863,207.469Z" transform="translate(-941.128 -199.925)" fill="#fff"/>
      </g>
      <g id="Group_18846" data-name="Group 18846" transform="translate(22.998 32.171)">
        <path id="Path_312" data-name="Path 312" d="M899.334,246.157a1.351,1.351,0,0,1-1.242-.818l-1.085-2.524a1.351,1.351,0,1,1,2.482-1.067l1.085,2.524a1.351,1.351,0,0,1-1.24,1.884Z" transform="translate(-895.839 -240.931)" fill="#fff"/>
        <path id="Path_313" data-name="Path 313" d="M893.544,256.376a1.351,1.351,0,0,1-.5-2.608l4.913-1.935a1.351,1.351,0,1,1,.99,2.513l-4.913,1.935A1.349,1.349,0,0,1,893.544,256.376Z" transform="translate(-892.193 -249.306)" fill="#fff"/>
      </g>
      <g id="Group_18847" data-name="Group 18847" transform="translate(8.744 32.171)">
        <path id="Path_314" data-name="Path 314" d="M842.75,246.108a1.351,1.351,0,0,1-1.254-1.851l.987-2.475a1.351,1.351,0,1,1,2.509,1L844,245.257A1.351,1.351,0,0,1,842.75,246.108Z" transform="translate(-838.58 -240.93)" fill="#fff"/>
        <path id="Path_315" data-name="Path 315" d="M835.067,255.792a1.346,1.346,0,0,1-.538-.113l-4.842-2.106a1.351,1.351,0,0,1,1.078-2.477l4.842,2.106a1.351,1.351,0,0,1-.539,2.59Z" transform="translate(-828.874 -248.72)" fill="#fff"/>
      </g>
      <g id="Group_18848" data-name="Group 18848" transform="translate(0.164 22.978)">
        <path id="Path_316" data-name="Path 316" d="M800.3,208.85a1.351,1.351,0,0,1-.534-2.592l2.348-1.009a1.351,1.351,0,0,1,1.066,2.482l-2.348,1.009A1.35,1.35,0,0,1,800.3,208.85Z" transform="translate(-797.109 -204.004)" fill="#fff"/>
        <path id="Path_317" data-name="Path 317" d="M794.049,207.712a1.351,1.351,0,0,1-1.257-.856l-1.935-4.913a1.351,1.351,0,1,1,2.514-.99l1.935,4.913a1.351,1.351,0,0,1-1.257,1.846Z" transform="translate(-790.763 -200.096)" fill="#fff"/>
      </g>
      <g id="Group_18849" data-name="Group 18849" transform="translate(0 8.888)">
        <path id="Path_318" data-name="Path 318" d="M802.259,153.715a1.348,1.348,0,0,1-.5-.1l-2.462-.982a1.351,1.351,0,1,1,1-2.509l2.462.982a1.351,1.351,0,0,1-.5,2.606Z" transform="translate(-796.552 -147.211)" fill="#fff"/>
        <path id="Path_319" data-name="Path 319" d="M791.384,145.05a1.352,1.352,0,0,1-1.238-1.89l2.106-4.842a1.351,1.351,0,1,1,2.477,1.077l-2.106,4.842A1.351,1.351,0,0,1,791.384,145.05Z" transform="translate(-790.034 -137.505)" fill="#fff"/>
      </g>
    </g>
  </g>
</svg>
