<svg xmlns="http://www.w3.org/2000/svg" width="40" height="39.14" viewBox="0 0 40 39.14">
  <g id="icon2" transform="translate(-47.971 -52.446)">
    <path id="Path_166" data-name="Path 166" d="M171.35,157.523l-2.782,5.638-6.222.9,4.5,4.388-1.063,6.2,5.565-2.926,5.565,2.926-1.063-6.2,4.5-4.388-6.222-.9Z" transform="translate(-103.379 -94.975)" fill="#fff"/>
    <path id="Path_167" data-name="Path 167" d="M87.251,73.879a2.772,2.772,0,0,0,0-3.727l-1.435-1.588a1.249,1.249,0,0,1-.269-1.184l.6-2.048a2.771,2.771,0,0,0-1.621-3.363l-1.977-.8a1.251,1.251,0,0,1-.759-.951l-.344-2.109a2.771,2.771,0,0,0-2.915-2.327l-2.135.132a1.247,1.247,0,0,1-1.093-.527l-1.226-1.751a2.771,2.771,0,0,0-3.639-.829l-1.862,1.046a1.248,1.248,0,0,1-1.216,0L65.5,52.806a2.772,2.772,0,0,0-3.639.828l-1.225,1.75a1.236,1.236,0,0,1-1.094.527l-2.135-.132a2.765,2.765,0,0,0-2.915,2.327l-.345,2.109a1.249,1.249,0,0,1-.759.95l-1.978.8a2.771,2.771,0,0,0-1.621,3.362l.6,2.049a1.25,1.25,0,0,1-.27,1.183l-1.435,1.589a2.771,2.771,0,0,0,0,3.727l1.435,1.588a1.25,1.25,0,0,1,.27,1.184l-.6,2.049a2.772,2.772,0,0,0,1.621,3.362l1.978.8a1.249,1.249,0,0,1,.759.95l.344,2.109a2.767,2.767,0,0,0,2.915,2.326l2.135-.131a1.247,1.247,0,0,1,1.094.527l1.225,1.75a2.771,2.771,0,0,0,3.639.83l1.863-1.046a1.243,1.243,0,0,1,1.216,0l1.862,1.046a2.772,2.772,0,0,0,3.639-.83l1.225-1.749A1.255,1.255,0,0,1,76.4,88.12l2.134.131a2.76,2.76,0,0,0,2.915-2.326l.344-2.109a1.249,1.249,0,0,1,.759-.95l1.978-.8a2.771,2.771,0,0,0,1.62-3.363l-.6-2.049a1.249,1.249,0,0,1,.27-1.184Zm-6.9-1.864A12.383,12.383,0,1,1,67.971,59.632,12.383,12.383,0,0,1,80.354,72.015Z" transform="translate(0 0)" fill="#fff"/>
  </g>
</svg>
