<svg xmlns="http://www.w3.org/2000/svg" width="44.73" height="44.73" viewBox="0 0 44.73 44.73">
  <g id="icon5" transform="translate(-3.505 -3.921)">
    <path id="Path_142" data-name="Path 142" d="M44.223,30.333l3.482-2.918a1.42,1.42,0,0,0,0-2.212l-3.482-2.965a1.461,1.461,0,0,1-.424-1.6l1.553-4.282a1.489,1.489,0,0,0-1.129-1.929l-4.518-.847A1.4,1.4,0,0,1,38.529,12.4l-.8-4.471A1.472,1.472,0,0,0,35.8,6.8L31.517,8.356a1.461,1.461,0,0,1-1.6-.424L26.953,4.45a1.42,1.42,0,0,0-2.212,0L21.823,7.933a1.461,1.461,0,0,1-1.6.424L15.941,6.8a1.455,1.455,0,0,0-1.929,1.129l-.847,4.518a1.4,1.4,0,0,1-1.176,1.176l-4.471.8a1.472,1.472,0,0,0-1.129,1.929L7.94,20.639a1.461,1.461,0,0,1-.424,1.6L4.034,25.2a1.42,1.42,0,0,0,0,2.212L7.517,30.38a1.461,1.461,0,0,1,.424,1.6L6.387,36.263a1.428,1.428,0,0,0,1.129,1.882l4.518.8a1.4,1.4,0,0,1,1.176,1.176l.8,4.518a1.472,1.472,0,0,0,1.929,1.129l4.282-1.553a1.461,1.461,0,0,1,1.6.424l2.965,3.482a1.42,1.42,0,0,0,2.212,0l2.965-3.482a1.461,1.461,0,0,1,1.6-.424l4.282,1.553a1.489,1.489,0,0,0,1.929-1.129l.8-4.518a1.4,1.4,0,0,1,1.176-1.176l4.518-.8A1.472,1.472,0,0,0,45.4,36.216l-1.6-4.282A1.461,1.461,0,0,1,44.223,30.333ZM18.675,33.166a6.785,6.785,0,0,1-4.988-2.118l2.165-2.024a3.96,3.96,0,0,0,2.824,1.318,2.919,2.919,0,0,0,1.977-.753,2.855,2.855,0,0,0,.918-2.118,2.906,2.906,0,0,0-1.012-2.235,3.014,3.014,0,0,0-2-.659,3.911,3.911,0,0,0-2.424.894l-1.977-.282,1.059-8.73h8.706v2.824H17.8l-.259,2.588a6.677,6.677,0,0,1,1.271-.118A5.989,5.989,0,0,1,22.651,23a5.761,5.761,0,0,1,2.094,4.471A5.847,5.847,0,0,1,18.675,33.166Zm12.753,5.412h-3.2l3.153-6.8L26.275,21.519H29.64l3.341,6.847,3.082-6.847h3.224Z" fill="#fff"/>
  </g>
</svg>
