<svg xmlns="http://www.w3.org/2000/svg" width="38.784" height="46.436" viewBox="0 0 38.784 46.436">
  <g id="icon6" transform="translate(193.019 -2.496)">
    <g id="Group_18747" data-name="Group 18747" transform="translate(-193.019 2.496)">
      <path id="Path_144" data-name="Path 144" d="M-154.248,47.466l-3.715-33.923a1.288,1.288,0,0,0-1.32-1.173h-6.4V10.415A7.948,7.948,0,0,0-173.6,2.5a7.948,7.948,0,0,0-7.919,7.919V12.37h-6.452a1.322,1.322,0,0,0-1.32,1.173l-3.715,33.923a1.32,1.32,0,0,0,.342,1.026,1.231,1.231,0,0,0,.978.44h36.172a1.231,1.231,0,0,0,.978-.44A1.288,1.288,0,0,0-154.248,47.466Zm-30.369-9A5.575,5.575,0,0,1-188.8,36.5l1.745-1.462A2.91,2.91,0,0,0-184.7,36.3a2.339,2.339,0,0,0,2.361-2.288,2.356,2.356,0,0,0-2.488-2.307,3.47,3.47,0,0,0-1.515.362V30.622l2.361-2.8H-188.2V25.665h7.664v1.442l-2.293,2.811a4.352,4.352,0,0,1,2.923,4.091A4.447,4.447,0,0,1-184.617,38.462Zm9.972,0a5.2,5.2,0,0,1-3.822-1.623l1.657-1.55a3.034,3.034,0,0,0,2.165,1.007,2.21,2.21,0,0,0,1.51-.577,2.175,2.175,0,0,0,.7-1.618,2.234,2.234,0,0,0-.772-1.716,2.322,2.322,0,0,0-1.535-.5,3.011,3.011,0,0,0-1.857.684l-1.515-.215.811-6.687h6.672v2.161h-4.688l-.2,1.985a5.093,5.093,0,0,1,.973-.093,4.58,4.58,0,0,1,2.938.958A4.408,4.408,0,0,1-170,34.1,4.479,4.479,0,0,1-174.645,38.462ZM-169.3,12.37h-8.6V10.415a4.308,4.308,0,0,1,4.3-4.3,4.34,4.34,0,0,1,4.3,4.3Zm7.689,25.912-3.7-3.783v3.783h-2.346v-12.8h2.346v6.882l3.011-2.83h3.3l-4.272,3.93,4.81,4.815Z" transform="translate(193.019 -2.496)" fill="#fff"/>
    </g>
  </g>
</svg>
