<svg xmlns="http://www.w3.org/2000/svg" width="60" height="39.243" viewBox="0 0 60 39.243">
  <g id="icon3" transform="translate(-1466.067 -833.112)">
    <path id="Path_337" data-name="Path 337" d="M1510.4,901.63h-42.937a1.246,1.246,0,1,1,0-2.491H1510.4a13.3,13.3,0,1,0,0-26.591h-41.526a1.245,1.245,0,0,1,0-2.491H1510.4a15.787,15.787,0,1,1,0,31.573Z" transform="translate(-0.118 -29.276)" fill="#fff"/>
    <g id="Group_18861" data-name="Group 18861" transform="translate(1466.067 833.112)">
      <path id="Path_338" data-name="Path 338" d="M1475.58,851.156a1.243,1.243,0,0,1-.881-.365l-8.632-8.632,8.683-8.683a1.245,1.245,0,1,1,1.761,1.761l-6.922,6.922,6.871,6.871a1.245,1.245,0,0,1-.881,2.126Z" transform="translate(-1466.067 -833.112)" fill="#fff"/>
    </g>
  </g>
</svg>
