<svg id="logo" xmlns="http://www.w3.org/2000/svg" width="150.119" height="40" viewBox="0 0 150.119 40">
  <path id="Path_25" data-name="Path 25" d="M213.324,70.138a8.791,8.791,0,1,0,8.79-8.619,8.575,8.575,0,0,0-8.79,8.619Zm4.429,0a4.363,4.363,0,1,1,4.361,4.5,4.345,4.345,0,0,1-4.361-4.5Zm20.986,8.245V67.651a5.277,5.277,0,0,1,4.021-2.045,3.483,3.483,0,0,1,2.486.92,3.994,3.994,0,0,1,.988,3.1v8.756h4.429V69.967c0-2.827-.613-4.5-1.7-5.791a7.441,7.441,0,0,0-5.723-2.657,7.29,7.29,0,0,0-4.667,1.669V61.859H234.31V78.383Zm27.9-5.145a5.85,5.85,0,0,1-4.157,1.908,4.338,4.338,0,0,1-4.462-3.917h11.447a7.3,7.3,0,0,0,.1-1.261c0-4.6-3.237-8.449-7.8-8.449-4.906,0-8.04,4.02-8.04,8.619a8.263,8.263,0,0,0,8.653,8.585,8.967,8.967,0,0,0,6.78-2.964l-2.521-2.521Zm-8.415-5.246a3.584,3.584,0,0,1,3.543-2.9,3.3,3.3,0,0,1,3.271,2.9Zm26.5,4.6a4.839,4.839,0,0,1-3.986,2.045,4.52,4.52,0,0,1-.1-9.029,5.081,5.081,0,0,1,4.088,2.045v4.94Zm4.429-10.732H284.9v1.329a7.571,7.571,0,0,0-4.838-1.669,8.294,8.294,0,0,0-8.108,8.619,8.865,8.865,0,0,0,2.112,5.791,8.306,8.306,0,0,0,6.235,2.794,6.91,6.91,0,0,0,4.6-1.669v1.329h4.259V61.859Zm9.2,0h-4.429V78.383h4.429V61.859ZM293.248,56a2.9,2.9,0,1,0,2.9-2.827,2.836,2.836,0,0,0-2.9,2.827Zm20.441,5.656a8.986,8.986,0,0,0-1.5-.136,6.184,6.184,0,0,0-4.8,2.01v-1.67h-4.259V78.383h4.428V67.992a4.905,4.905,0,0,1,4.021-2.386,6.156,6.156,0,0,1,1.6.171l.51-4.122Z" transform="translate(-163.57 -50.81)" fill="#fff"/>
  <path id="Path_26" data-name="Path 26" d="M174.86,63.963a13.815,13.815,0,1,0-27.629,0,13.815,13.815,0,1,0,27.629,0Zm-4.852,0c0,5.209-3.694,9.387-8.963,9.387s-8.963-4.179-8.963-9.387,3.694-9.387,8.963-9.387,8.963,4.179,8.963,9.387Z" transform="translate(-147.231 -50.034)" fill="#fff"/>
  <path id="Path_27" data-name="Path 27" d="M203.351,93.745a10.655,10.655,0,0,0,3.164-7.681,10.172,10.172,0,0,0-8.452-10.2l6.887-7.916V65.044H187.508v4.249h10.823l-6.664,7.871v2.907a13.924,13.924,0,0,1,3.623-.492,6.518,6.518,0,0,1,4.6,11.354c.036.071,3.461,2.812,3.461,2.812Z" transform="translate(-157.188 -53.745)" fill="#fff"/>
</svg>
